<?xml version="1.0" standalone="no"?>
<!DOCTYPE svg PUBLIC "-//W3C//DTD SVG 20010904//EN"
 "http://www.w3.org/TR/2001/REC-SVG-20010904/DTD/svg10.dtd">
<svg version="1.0" xmlns="http://www.w3.org/2000/svg"
 width="128.000000pt" height="128.000000pt" viewBox="0 0 128.000000 128.000000"
 preserveAspectRatio="xMidYMid meet">
<metadata>
Created by potrace 1.11, written by Peter Selinger 2001-2013
</metadata>
<g transform="translate(0.000000,128.000000) scale(0.100000,-0.100000)"
fill="#000000" stroke="none">
<path d="M287 1089 c-15 -9 -48 -60 -47 -74 1 -21 -3 -25 -24 -25 -32 0 -36
-15 -36 -134 0 -105 7 -126 42 -126 19 0 19 -3 19 -85 0 -101 0 -105 -19 -105
-35 0 -42 -21 -42 -129 0 -115 5 -131 39 -134 16 -1 24 -10 28 -29 3 -16 17
-37 31 -48 23 -19 41 -20 341 -20 360 0 374 3 429 79 78 107 63 265 -31 348
l-34 30 42 42 c107 105 94 302 -24 386 l-43 30 -326 2 c-215 2 -333 -1 -345
-8z m523 -154 l34 -35 36 35 c25 24 42 34 53 29 26 -9 20 -35 -15 -71 l-32
-33 32 -31 c35 -35 39 -50 17 -69 -12 -10 -21 -6 -51 24 -20 20 -38 36 -41 36
-3 0 -20 -17 -39 -37 -33 -36 -34 -36 -54 -18 l-21 19 38 38 37 37 -20 23
c-10 13 -27 29 -37 36 -17 13 -17 15 -1 33 23 25 25 25 64 -16z m112 -413 c56
-33 74 -120 38 -179 -27 -45 -65 -67 -115 -67 -140 0 -186 191 -61 254 45 23
91 20 138 -8z"/>
<path d="M799 477 c-23 -17 -38 -50 -34 -73 2 -10 4 -22 4 -26 1 -4 11 -16 23
-28 43 -40 119 -15 134 44 7 28 -18 81 -41 90 -26 10 -69 6 -86 -7z"/>
</g>
</svg>
